{"title":"Scorpion.s03e01e02.720p.hdtv.x265-dimension[GreatIndiaRipper]","uid":16006809,"size":368654443,"categoryP":"video","categoryS":"hd___tv_shows","magnet":"?xt=urn:btih:beb07dae0883906ef3532a430d0f6c24f3f9d2a3&amp;dn=Scorpion.s03e01e02.720p.hdtv.x265-dimension%5BGreatIndiaRipper%5D&amp;tr=udp%3A%2F%2Ftracker.leechers-paradise.org%3A6969&amp;tr=udp%3A%2F%2Fzer0day.ch%3A1337&amp;tr=udp%3A%2F%2Fopen.demonii.com%3A1337&amp;tr=udp%3A%2F%2Ftracker.coppersurfer.tk%3A6969&amp;tr=udp%3A%2F%2Fexodus.desync.com%3A6969","seeders":0,"leechers":3,"uploader":"greatindiaripper","files":7,"time":1476191359,"description":"General\r\n\r\nFormat                      : Matroska\r\nFormat version              : Version 4 / Version 2\r\nFile size                   : 351 MiB\r\nDuration                    : 1 h 20 min\r\nOverall bit rate            : 611 kb/s\r\nMovie name                  : Scorpion.s03e01e02.720p.hdtv.x265-dimension[GreatIndiaRipper]\r\n\r\n\r\nVideo\r\nID                          : 1\r\nFormat                      : HEVC\r\nFormat/Info                 : High Efficiency Video Coding\r\nFormat profile              :   @Main\r\nCodec ID                    : V_MPEGH/ISO/HEVC\r\nDuration                    : 1 h 20 min\r\nBit rate                    : 451 kb/s\r\nWidth                       : 1 280 pixels\r\nHeight                      : 720 pixels\r\nDisplay aspect ratio        : 16:9\r\nFrame rate mode             : Constant\r\nFrame rate                  : 23.976 (24000/1001) FPS\r\nColor space                 : YUV\r\nChroma subsampling          : 4:2:0\r\nBit depth                   : 8 bits\r\nBits/(Pixel*Frame)          : 0.020\r\nStream size                 : 259 MiB (74%)\r\nTitle                       : Scorpion.s03e01e02.720p.hdtv.x265-dimension[GreatIndiaRipper]\r\n\r\n\r\nAudio\r\nID                          : 2\r\nFormat                      : AAC\r\nFormat/Info                 : Advanced Audio Codec\r\nFormat profile              : LC\r\nCodec ID                    : A_AAC\r\nDuration                    : 1 h 20 min\r\nBit rate                    : 159 kb/s\r\nChannel(s)                  : 2 channels\r\nChannel positions           : Front: L R\r\nSampling rate               : 48.0 kHz\r\nFrame rate                  : 46.875 FPS (1024 spf)\r\nCompression mode            : Lossy\r\nStream size                 : 91.1 MiB (26%)\r\nTitle                       : Scorpion.s03e01e02.720p.hdtv.x265-dimension[GreatIndiaRipper]\r\nDefault                     : Yes\r\nForced                      : No","torrent":{"xt":"urn:btih:beb07dae0883906ef3532a430d0f6c24f3f9d2a3","amp;dn":"Scorpion.s03e01e02.720p.hdtv.x265-dimension%5BGreatIndiaRipper%5D","amp;tr":["udp%3A%2F%2Ftracker.leechers-paradise.org%3A6969","udp%3A%2F%2Fzer0day.ch%3A1337","udp%3A%2F%2Fopen.demonii.com%3A1337","udp%3A%2F%2Ftracker.coppersurfer.tk%3A6969","udp%3A%2F%2Fexodus.desync.com%3A6969"],"infoHash":"beb07dae0883906ef3532a430d0f6c24f3f9d2a3","infoHashBuffer":{"type":"Buffer","data":[190,176,125,174,8,131,144,110,243,83,42,67,13,15,108,36,243,249,210,163]},"announce":[],"urlList":[]}}